<!DOCTYPE svg PUBLIC "-//W3C//DTD SVG 20010904//EN" "http://www.w3.org/TR/2001/REC-SVG-20010904/DTD/svg10.dtd">
<svg version="1.0" xmlns="http://www.w3.org/2000/svg" width="200px" height="200px" viewBox="0 0 2000 2000" preserveAspectRatio="xMidYMid meet">
<g id="layer101" fill="#000000" stroke="none">
 <path d="M120 1178 l-65 -61 165 8 c91 4 187 11 214 16 74 14 152 11 165 -5 10 -12 1 -15 -53 -21 -37 -4 -66 -11 -66 -16 0 -5 30 -6 69 -3 46 5 70 3 75 -5 4 -6 25 -11 48 -11 40 0 40 1 35 30 -6 25 -3 30 13 30 22 0 27 -25 8 -33 -10 -4 -10 -6 0 -6 7 -1 11 -5 8 -10 -8 -13 45 -24 57 -12 17 17 41 13 57 -9 8 -11 26 -20 41 -20 31 0 48 -35 50 -104 2 -41 4 -34 15 53 3 26 9 39 13 32 5 -8 18 -10 34 -5 21 5 27 2 27 -10 0 -9 -7 -16 -15 -16 -8 0 -15 -4 -15 -9 0 -5 -3 -16 -6 -24 -3 -8 1 -21 8 -28 8 -8 19 -30 24 -49 6 -19 16 -34 22 -33 8 2 12 -14 12 -47 0 -51 7 -58 44 -44 25 10 19 34 -9 34 -22 0 -25 4 -25 35 0 22 6 38 15 41 19 8 20 34 0 34 -9 0 -12 6 -9 15 4 8 10 12 16 9 5 -3 18 2 28 11 15 14 19 27 15 64 -7 74 11 111 37 76 5 -6 8 -5 8 3 0 6 5 12 11 12 5 0 7 -4 4 -10 -3 -5 1 -10 9 -10 18 0 20 -7 16 -70 -1 -25 -7 -49 -14 -53 -8 -6 -8 -10 2 -14 7 -3 12 -25 12 -58 0 -78 20 -81 22 -3 0 35 0 75 -1 91 -3 31 24 39 32 10 4 -17 5 -17 6 0 0 9 8 17 17 17 12 0 14 4 7 13 -13 17 -11 39 5 45 7 2 12 -6 12 -22 0 -16 6 -26 15 -26 8 0 15 9 15 20 0 11 5 20 11 20 6 0 9 7 5 15 -3 8 -1 15 4 15 6 0 10 -4 10 -10 0 -17 38 -11 52 9 7 10 28 22 46 25 20 5 32 14 33 24 0 11 2 12 6 5 8 -21 52 -14 79 12 24 24 30 25 149 25 l124 0 4 -47 c3 -48 3 -48 5 9 1 31 -3 69 -10 83 l-11 25 -836 0 -836 -1 -65 -61z"/>
 </g>

</svg>